<?xml version="1.0" ?><!DOCTYPE svg  PUBLIC '-//W3C//DTD SVG 1.1//EN'  'http://www.w3.org/Graphics/SVG/1.1/DTD/svg11.dtd'><!-- Uploaded to: SVG Repo, www.svgrepo.com, Generator: SVG Repo Mixer Tools -->
<svg fill="#000000" width="800px" height="800px" viewBox="0 0 120 120" enable-background="new 0 0 120 120" id="Layer_1" version="1.1" xml:space="preserve" xmlns="http://www.w3.org/2000/svg" xmlns:xlink="http://www.w3.org/1999/xlink"><path d="M97.271,90.849c-0.388-1.034-1.54-1.559-2.574-1.17c-0.033,0.013-3.497,1.048-8.756-2.885  c-1.269-0.949-1.962-1.982-2.348-3.072l4.366-4.028l1.107,2.18h-0.766c-1.104,0-2,0.896-2,2s0.896,2,2,2h4.025  c0.695,0,1.341-0.361,1.705-0.954c0.363-0.593,0.393-1.332,0.078-1.952l-3.781-7.441c-0.284-0.558-0.813-0.952-1.43-1.062  c-0.616-0.114-1.249,0.074-1.71,0.498l-4.128,3.808c-0.101-2.505-0.689-5.854-5.563-5.989c-0.061-0.002-0.119-0.003-0.179-0.003  c-0.005,0-0.009,0.001-0.014,0.001l-2.826-5.321l3.251-0.391l-0.255,0.878c-0.308,1.061,0.303,2.17,1.363,2.479  c1.063,0.305,2.17-0.302,2.479-1.363l1.098-3.782c0.187-0.645,0.038-1.34-0.396-1.852c-0.434-0.512-1.1-0.769-1.763-0.691  l-9.148,1.099c-0.655,0.079-1.229,0.475-1.534,1.06s-0.303,1.282,0.006,1.864l3.919,7.381c-2.929,2.229-4.9,6.879-6.82,11.432  c-1.276,3.024-3.204,7.594-4.508,8c-0.102,0.032-0.156,0.031-0.167,0.031c-0.625-0.188-1.326-2.206-1.75-5  c-0.005-0.036-0.008-0.071-0.015-0.107c-0.224-1.508-0.365-3.233-0.373-5.018l7.157-16.45l13.647-31.362  c0.439-1.011-0.021-2.187-1.031-2.63L50.223,20.146c-0.689-0.302-1.49-0.191-2.072,0.287L23.332,40.814  c-0.852,0.7-0.977,1.957-0.279,2.811l18.945,23.186c0.699,0.855,1.958,0.981,2.814,0.283c0.855-0.699,0.982-1.959,0.283-2.814  L27.413,42.639l22.329-18.337l23.319,10.217l-19.516,2.697l-1.305-9.445c-0.151-1.094-1.162-1.863-2.255-1.707  c-1.094,0.151-1.858,1.161-1.707,2.255l1.305,9.445l-18.093,2.5c-1.094,0.151-1.858,1.161-1.707,2.255  c0.138,1.001,0.995,1.726,1.979,1.726c0.091,0,0.184-0.006,0.276-0.019l18.093-2.5l4.775,34.561l-4.68-5.729  c-0.7-0.855-1.96-0.982-2.814-0.283c-0.855,0.699-0.982,1.959-0.283,2.814l8.737,10.693c0.005,0.505,0.022,1.116,0.058,1.8  l-4.831-2.211c-0.639-0.292-1.386-0.227-1.966,0.17c-0.58,0.399-0.907,1.073-0.862,1.775l0.593,9.296  c0.042,0.659,0.407,1.254,0.975,1.592c0.313,0.187,0.667,0.281,1.021,0.281c0.287,0,0.575-0.062,0.842-0.186l3.415-1.586  c1.002-0.465,1.437-1.655,0.972-2.656s-1.654-1.438-2.656-0.972l-0.763,0.354l-0.194-3.04l3.985,1.824  c0.503,2.676,1.422,5.303,3.108,6.554c0.732,0.543,1.576,0.821,2.457,0.821c0.44,0,0.891-0.069,1.341-0.209  c1.572-0.49,2.815-1.858,3.937-3.742l4.016,5.548c0.377,0.521,0.979,0.827,1.62,0.827c0.021,0,0.042,0,0.063-0.001  c0.664-0.021,1.273-0.37,1.628-0.932l5.164-8.185c0.389-0.616,0.412-1.395,0.06-2.033c-0.352-0.638-1.022-1.034-1.751-1.034h-4.677  c-1.104,0-2,0.896-2,2s0.896,2,2,2h1.05l-1.65,2.617L69.304,89.6c0.35-0.798,0.7-1.625,1.059-2.476  c1.843-4.371,4.363-10.346,6.976-10.346c0.016,0,0.032,0,0.048,0c1.587,0.044,1.649,0.046,1.698,2.938  c0.019,1.055,0.041,2.313,0.292,3.645c0.002,0.012,0.006,0.024,0.008,0.037c0.421,2.195,1.47,4.587,4.16,6.6  c7.044,5.269,12.014,3.632,12.557,3.427C97.135,93.036,97.659,91.883,97.271,90.849z M75.175,38.264L63.354,65.43L58.867,75.74  l-4.775-34.563L75.175,38.264z"/></svg>